<svg id="레이어_1" data-name="레이어 1" xmlns="http://www.w3.org/2000/svg" viewBox="0 0 141.73 141.73"><defs><style>.cls-1{fill:#bd8659;stroke:#bd8659;stroke-miterlimit:10;stroke-width:2px;}</style></defs><title>대지 1</title><path class="cls-1" d="M135.14,18.38h-29.2l-2.74-10a2.61,2.61,0,0,0-3.45-1.75l-31.12,12a2.49,2.49,0,0,0-1.06-.23H30.18a2.65,2.65,0,0,0-1.89.8l-23,23.89a2.64,2.64,0,0,0-1,1.56l0,.19c0,.08,0,.16,0,.25s0,.07,0,.1h0v81.64a2.61,2.61,0,0,0,2.61,2.61H123.47a2.61,2.61,0,0,0,2.62-2.61v-9h9a2.61,2.61,0,0,0,2.61-2.61V21A2.61,2.61,0,0,0,135.14,18.38Zm-28,24.18H20.81l78.12-30Zm-75.86-19H55.61L17,38.43Zm89.57,100.6H9.47V47.79H120.86Zm11.66-11.65h-6.43V45.18a2.62,2.62,0,0,0-2.62-2.62h-10.9l-5.2-19h25.15v88.95Z"/></svg>