<svg id="레이어_1" data-name="레이어 1" xmlns="http://www.w3.org/2000/svg" viewBox="0 0 566.93 141.73"><defs><style>.cls-1{fill:#f3faff;}</style></defs><title>대지 1</title><path class="cls-1" d="M42.69,74.16A11.84,11.84,0,0,1,46,78.05a12.07,12.07,0,0,1,1.3,5.83A12.39,12.39,0,0,1,42.34,94.2a15.55,15.55,0,0,1-4.81,2.47,18.27,18.27,0,0,1-5.55.85H10.6V95c.51,0,1.25-.14,2.23-.3a7.49,7.49,0,0,0,2.1-.55,3,3,0,0,0,1.4-1.32,4.89,4.89,0,0,0,.41-2.14v-36a5.57,5.57,0,0,0-.37-2.12,2.88,2.88,0,0,0-1.44-1.49,8.72,8.72,0,0,0-2.13-.81,14.55,14.55,0,0,0-2-.36v-2.5H31.66a19.5,19.5,0,0,1,4.63.53,12.84,12.84,0,0,1,4.21,1.87,9.53,9.53,0,0,1,3.08,3.36,10.21,10.21,0,0,1,1.21,5.16A12,12,0,0,1,43.93,63a10.12,10.12,0,0,1-2.41,3.55A14,14,0,0,1,38.16,69a17.93,17.93,0,0,1-4.09,1.5v.32a21.83,21.83,0,0,1,4.35,1.08A14.29,14.29,0,0,1,42.69,74.16ZM35,66.59a9.14,9.14,0,0,0,1.64-3.32A18,18,0,0,0,37.1,59a9.63,9.63,0,0,0-2-6.49c-1.36-1.57-3.49-2.36-6.41-2.36-.68,0-1.53,0-2.56.06l-2.58.08v19.3h4A12,12,0,0,0,32,68.83,6.92,6.92,0,0,0,35,66.59Zm4.42,16a10.28,10.28,0,0,0-2.69-7.32Q34,72.42,29.05,72.43c-1.36,0-2.5,0-3.44,0l-2.09.09V90.24a3.83,3.83,0,0,0,1.62,3.36,7.81,7.81,0,0,0,4.51,1.13,8.82,8.82,0,0,0,7.26-3.08C38.58,89.61,39.42,86.59,39.42,82.61Z"/><path class="cls-1" d="M95.36,97.52H76.6V95a17.44,17.44,0,0,0,4.12-.7c1.09-.36,1.64-.79,1.64-1.31a6.28,6.28,0,0,0-.06-.78,5.1,5.1,0,0,0-.19-.81L78.37,80.17H62.53c-.6,1.65-1.08,3.09-1.45,4.31s-.71,2.36-1,3.39-.46,1.84-.57,2.48a9.32,9.32,0,0,0-.16,1.55c0,.94.67,1.68,2,2.19a14.63,14.63,0,0,0,4.52.92v2.51h-17V95a11.7,11.7,0,0,0,2.07-.4,6.66,6.66,0,0,0,2-.9,8.82,8.82,0,0,0,2-2,13.92,13.92,0,0,0,1.37-2.88q3.4-9.43,7.5-21.2l7.32-21h2.54l15,43.25a8.43,8.43,0,0,0,1.08,2.23,7.56,7.56,0,0,0,1.68,1.66,6.68,6.68,0,0,0,1.91.83,8.38,8.38,0,0,0,2,.37ZM77.21,77,70.37,57.57,63.63,77Z"/><path class="cls-1" d="M143.29,49.88a13.76,13.76,0,0,0-2.73.57,9,9,0,0,0-2.64,1.1,5.1,5.1,0,0,0-1.54,3.39,41.14,41.14,0,0,0-.4,6.36V98h-2.77L105.86,57V82.86a34.41,34.41,0,0,0,.49,6.68,6.47,6.47,0,0,0,1.51,3.32,7.16,7.16,0,0,0,3,1.45,17.29,17.29,0,0,0,3,.7v2.51H95.39V95a15,15,0,0,0,2.9-.69,7.19,7.19,0,0,0,2.54-1.11,5.32,5.32,0,0,0,1.53-3,40.48,40.48,0,0,0,.41-6.94V58.54a10.85,10.85,0,0,0-.51-3.25,6.27,6.27,0,0,0-1.36-2.51,9.64,9.64,0,0,0-3.1-2,10.16,10.16,0,0,0-3.17-.91v-2.5h12.9l25.36,38.23V61.76a33.71,33.71,0,0,0-.51-6.73,5.52,5.52,0,0,0-1.46-3.13A10.08,10.08,0,0,0,128,50.59a15.06,15.06,0,0,0-3.07-.71v-2.5h18.35Z"/><path class="cls-1" d="M189,97.52H170.27V95a17.53,17.53,0,0,0,4.12-.7C175.48,94,176,93.52,176,93a6.56,6.56,0,0,0-.07-.78,3.57,3.57,0,0,0-.19-.81L172,80.17H156.19c-.59,1.65-1.08,3.09-1.45,4.31s-.7,2.36-1,3.39-.47,1.84-.58,2.48A10.32,10.32,0,0,0,153,91.9c0,.94.66,1.68,2,2.19a14.57,14.57,0,0,0,4.52.92v2.51h-17V95a11.87,11.87,0,0,0,2.07-.4,6.71,6.71,0,0,0,2-.9,8.42,8.42,0,0,0,2-2A13.43,13.43,0,0,0,150,88.83q3.41-9.43,7.51-21.2t7.31-21h2.55l15,43.25a9.09,9.09,0,0,0,1.08,2.23,7.85,7.85,0,0,0,1.69,1.66,6.44,6.44,0,0,0,1.91.83,8.29,8.29,0,0,0,2,.37ZM170.87,77,164,57.57,157.3,77Z"/><path class="cls-1" d="M222.65,74.16a11.93,11.93,0,0,1,3.27,3.89,12.07,12.07,0,0,1,1.31,5.83A12.46,12.46,0,0,1,222.3,94.2a15.6,15.6,0,0,1-4.82,2.47,18.18,18.18,0,0,1-5.55.85H190.56V95c.5,0,1.25-.14,2.22-.3a7.29,7.29,0,0,0,2.1-.55,3,3,0,0,0,1.4-1.32,4.75,4.75,0,0,0,.41-2.14v-36a5.78,5.78,0,0,0-.36-2.12,2.94,2.94,0,0,0-1.45-1.49,8.72,8.72,0,0,0-2.13-.81,14.28,14.28,0,0,0-2-.36v-2.5h20.83a19.5,19.5,0,0,1,4.63.53,12.75,12.75,0,0,1,4.21,1.87,9.65,9.65,0,0,1,3.09,3.36,10.31,10.31,0,0,1,1.21,5.16,12.21,12.21,0,0,1-.86,4.71,10.28,10.28,0,0,1-2.42,3.55A13.81,13.81,0,0,1,218.11,69a18,18,0,0,1-4.08,1.5v.32a21.92,21.92,0,0,1,4.34,1.08A14.35,14.35,0,0,1,222.65,74.16ZM215,66.59a9,9,0,0,0,1.64-3.32,17.45,17.45,0,0,0,.46-4.29,9.63,9.63,0,0,0-2-6.49c-1.36-1.57-3.49-2.36-6.41-2.36-.68,0-1.53,0-2.56.06l-2.58.08v19.3h4a12.14,12.14,0,0,0,4.46-.74A7,7,0,0,0,215,66.59Zm4.42,16a10.28,10.28,0,0,0-2.69-7.32Q214,72.42,209,72.43c-1.36,0-2.5,0-3.43,0l-2.1.09V90.24a3.83,3.83,0,0,0,1.62,3.36,7.84,7.84,0,0,0,4.52,1.13,8.8,8.8,0,0,0,7.25-3.08C218.53,89.61,219.37,86.59,219.37,82.61Z"/><path class="cls-1" d="M275.32,97.52H256.56V95a17.44,17.44,0,0,0,4.11-.7c1.1-.36,1.64-.79,1.64-1.31a6.28,6.28,0,0,0-.06-.78,4.2,4.2,0,0,0-.19-.81l-3.74-11.24H242.48c-.6,1.65-1.08,3.09-1.45,4.31s-.71,2.36-1,3.39-.47,1.84-.58,2.48a10.54,10.54,0,0,0-.16,1.55c0,.94.67,1.68,2,2.19a14.5,14.5,0,0,0,4.51.92v2.51h-17V95a11.61,11.61,0,0,0,2.06-.4,6.66,6.66,0,0,0,2-.9,8.42,8.42,0,0,0,2-2,13.92,13.92,0,0,0,1.37-2.88q3.41-9.43,7.5-21.2l7.32-21h2.55l15,43.25a9.09,9.09,0,0,0,1.08,2.23,7.42,7.42,0,0,0,1.69,1.66,6.48,6.48,0,0,0,1.9.83,8.36,8.36,0,0,0,2,.37ZM257.16,77l-6.84-19.46L243.58,77Z"/><path class="cls-1" d="M354,49.88a6.65,6.65,0,0,0-1.84.41,8.59,8.59,0,0,0-1.94,1,7.12,7.12,0,0,0-1.8,1.79,9.73,9.73,0,0,0-1.19,2.81Q345,64,342,74.92t-6.46,23.24h-2.92l-11.4-38.62L309.39,98.16h-2.81q-3.15-12.37-6.52-25.68t-4.52-17.82a6.61,6.61,0,0,0-.84-1.95,6.13,6.13,0,0,0-1.51-1.55,5.55,5.55,0,0,0-1.86-.9,10.62,10.62,0,0,0-1.92-.38v-2.5H307.8v2.5a26.07,26.07,0,0,0-4.12.54c-1.13.25-1.7.69-1.7,1.3a5.47,5.47,0,0,0,.1.94c.06.39.11.7.16.94q.72,3.1,2.59,10.28t5.51,21.48L321.6,48.08h3.11l11.37,38.08q2.3-8.77,4-15.35t2.74-11.24c.51-2.19.83-3.7,1-4.51a13.31,13.31,0,0,0,.19-2.07,2.34,2.34,0,0,0-1.48-2,12.85,12.85,0,0,0-4.79-1.1v-2.5H354Z"/><path class="cls-1" d="M398.27,97.52H379.51V95a17.44,17.44,0,0,0,4.12-.7c1.09-.36,1.64-.79,1.64-1.31a6.28,6.28,0,0,0-.06-.78,5.1,5.1,0,0,0-.19-.81l-3.74-11.24H365.43c-.59,1.65-1.07,3.09-1.44,4.31s-.71,2.36-1,3.39-.46,1.84-.57,2.48a9.32,9.32,0,0,0-.16,1.55c0,.94.67,1.68,2,2.19a14.63,14.63,0,0,0,4.52.92v2.51h-17V95a11.7,11.7,0,0,0,2.07-.4,6.66,6.66,0,0,0,2-.9,8.82,8.82,0,0,0,2-2,14.46,14.46,0,0,0,1.37-2.88q3.39-9.43,7.5-21.2l7.32-21h2.54l15.05,43.25a8.43,8.43,0,0,0,1.08,2.23,7.56,7.56,0,0,0,1.68,1.66,6.68,6.68,0,0,0,1.91.83,8.38,8.38,0,0,0,2,.37ZM380.12,77l-6.84-19.46L366.54,77Z"/><path class="cls-1" d="M436.12,82.61l-.95,14.91H399.9V95c.5,0,1.24-.13,2.21-.24a7.1,7.1,0,0,0,2-.46A2.92,2.92,0,0,0,405.51,93a5.12,5.12,0,0,0,.43-2.26V54.8a5.57,5.57,0,0,0-.37-2.12,2.88,2.88,0,0,0-1.44-1.49,10.48,10.48,0,0,0-2.06-.83,11,11,0,0,0-2.17-.48v-2.5H419v2.5a14.34,14.34,0,0,0-2.31.36,16.41,16.41,0,0,0-2.05.56,2.52,2.52,0,0,0-1.48,1.45,6.17,6.17,0,0,0-.4,2.19V88.12a23.85,23.85,0,0,0,.21,3.62,3.36,3.36,0,0,0,1,2,4.14,4.14,0,0,0,2.18.83,32,32,0,0,0,4.05.2c.79,0,1.6,0,2.45-.08a18,18,0,0,0,2.42-.28,10.94,10.94,0,0,0,2.05-.58,3.14,3.14,0,0,0,1.38-.94,30.94,30.94,0,0,0,3-4.93,36,36,0,0,0,2.4-5.35Z"/><path class="cls-1" d="M475.43,82.61l-.95,14.91H439.21V95c.51,0,1.24-.13,2.21-.24a7.1,7.1,0,0,0,2-.46A2.92,2.92,0,0,0,444.82,93a5.12,5.12,0,0,0,.43-2.26V54.8a5.57,5.57,0,0,0-.37-2.12,2.88,2.88,0,0,0-1.44-1.49,10.35,10.35,0,0,0-2.05-.83,11.23,11.23,0,0,0-2.18-.48v-2.5h19.05v2.5a14.34,14.34,0,0,0-2.31.36,16.41,16.41,0,0,0-2.05.56,2.52,2.52,0,0,0-1.48,1.45,6.17,6.17,0,0,0-.4,2.19V88.12a23.85,23.85,0,0,0,.21,3.62,3.36,3.36,0,0,0,1,2,4.14,4.14,0,0,0,2.18.83,32,32,0,0,0,4.05.2c.79,0,1.6,0,2.45-.08a18,18,0,0,0,2.42-.28,10.94,10.94,0,0,0,2.05-.58,3.24,3.24,0,0,0,1.39-.94,31.78,31.78,0,0,0,3-4.93,36,36,0,0,0,2.4-5.35Z"/><path class="cls-1" d="M516.46,82.75l-.86,14.77H478.14V95c.63,0,1.48-.14,2.54-.3a7.59,7.59,0,0,0,2.07-.48,3,3,0,0,0,1.41-1.37,5.05,5.05,0,0,0,.4-2.16v-36a5.76,5.76,0,0,0-.35-2.07,2.85,2.85,0,0,0-1.46-1.47,10.16,10.16,0,0,0-2.31-.81,15.59,15.59,0,0,0-2.3-.43v-2.5h34.92V59.46h-2.39a17,17,0,0,0-2.75-5.71q-2.12-3-4-3.3c-.66-.09-1.44-.16-2.36-.21s-2-.07-3.11-.07h-7.1V70.1h5.09a9.24,9.24,0,0,0,3.58-.51,5.11,5.11,0,0,0,2-1.72,9.4,9.4,0,0,0,1.19-2.74,18.12,18.12,0,0,0,.65-3.23h2.39V81.55h-2.39a17.09,17.09,0,0,0-.68-3.59A9.76,9.76,0,0,0,502,75.22a4.64,4.64,0,0,0-2.24-1.8,10.8,10.8,0,0,0-3.33-.42h-5.09V88a17.43,17.43,0,0,0,.29,3.56,3.39,3.39,0,0,0,1.11,2,4.6,4.6,0,0,0,2.26.86,32.43,32.43,0,0,0,4.07.19h2.77a23.5,23.5,0,0,0,2.89-.14,14.8,14.8,0,0,0,2.5-.51,3.67,3.67,0,0,0,1.83-1,22.56,22.56,0,0,0,3.07-5.14,37.44,37.44,0,0,0,2-5.07Z"/><path class="cls-1" d="M557.77,61h-2.19a17.88,17.88,0,0,0-1-3,26.8,26.8,0,0,0-1.67-3.3,15.9,15.9,0,0,0-2.09-2.85,4,4,0,0,0-2.18-1.39c-.66-.1-1.49-.17-2.49-.22s-1.92-.07-2.77-.07h-1.85V90.24a5,5,0,0,0,.45,2.14,3,3,0,0,0,1.55,1.5,16.84,16.84,0,0,0,2.41.67,14.88,14.88,0,0,0,2.84.46v2.51H527.43V95c.6,0,1.5-.14,2.72-.28a9.63,9.63,0,0,0,2.53-.53,3.17,3.17,0,0,0,1.54-1.33,4.6,4.6,0,0,0,.5-2.31V50.13h-1.85c-.66,0-1.47,0-2.45.06a27.34,27.34,0,0,0-2.8.23,3.72,3.72,0,0,0-2.17,1.39,18.39,18.39,0,0,0-2.09,2.85A24.62,24.62,0,0,0,521.68,58a21.45,21.45,0,0,0-1,2.95h-2.23V47.38h39.34Z"/></svg>