<svg id="레이어_1" data-name="레이어 1" xmlns="http://www.w3.org/2000/svg" viewBox="0 0 566.93 255.12"><defs><style>.cls-1{fill:#bd8659;}</style></defs><title>대지 1</title><path class="cls-1" d="M365.4,90.19a81.74,81.74,0,1,0-81.74,81.73A81.83,81.83,0,0,0,365.4,90.19Zm-81.74-79a79.07,79.07,0,0,1,79,77.63H340.87a57.22,57.22,0,0,0-114.41,0H204.71A79.07,79.07,0,0,1,283.66,11.19Zm54.54,79a54.54,54.54,0,1,1-54.54-54.54A54.59,54.59,0,0,1,338.2,90.19Zm-54.54,79a79.06,79.06,0,0,1-79-77.62h21.75a57.22,57.22,0,0,0,114.41,0h21.75A79.07,79.07,0,0,1,283.66,169.18Z"/><path class="cls-1" d="M308,83.58a8.06,8.06,0,0,0,5.85-8c0-5.3-4.08-8.84-11.49-8.84H291.92v.52h.66A3.38,3.38,0,0,1,296,70.53V99l-2.12-2.38L268.56,67.13h-.47s0,2.3,0,5.55v7.66a13.15,13.15,0,0,0-7.89-2.15H250.18v.5h.63a3.24,3.24,0,0,1,3.25,3.14V110a3.24,3.24,0,0,1-3.24,3.15h-.64v.51h12.34c7.55,0,11.8-3.8,11.8-9.52a9.41,9.41,0,0,0-4-8A10.63,10.63,0,0,0,268.12,95a11.71,11.71,0,0,0-2.48-.67,7.83,7.83,0,0,0,2.48-1.25,7.47,7.47,0,0,0,2.17-2.48,8.41,8.41,0,0,0,1-4,8.11,8.11,0,0,0-1-3.85V73.75L296,103.64v0h8.81c7.87,0,12.31-4,12.31-9.92C317.1,88.54,313.66,84.42,308,83.58Zm-49,10.86v.47c3,0,6.69.49,9,2.65a7.88,7.88,0,0,1,2.39,6c0,.06,0,.12,0,.18,0,5.13-3,8.06-8.18,8h-5v-32h2.68c4.8,0,7.39,2.63,7.41,7.21C267.44,93.54,262.17,94.45,259.08,94.44Zm45.52,7.33h-5.18V68.42h2.79c5,0,7.7,2.74,7.72,7.52,0,6.79-5.51,7.74-8.73,7.73v.49c5.11,0,11.93,1.31,11.92,9.23C313.14,98.73,310,101.79,304.6,101.77Z"/><path class="cls-1" d="M229.77,60.72l2.62-4.11a6.06,6.06,0,0,0,.7-1.49,3.81,3.81,0,0,0,.15-1.4,2.59,2.59,0,0,0-.4-1.21,3.07,3.07,0,0,0-1-1h0a2.75,2.75,0,0,0-1-.41,2.42,2.42,0,0,0-.93,0,3,3,0,0,0-.89.32,4.41,4.41,0,0,0-.82.56,3,3,0,0,0-.13-1.49,2.55,2.55,0,0,0-.42-.75,3.17,3.17,0,0,0-.77-.66l0,0a2.62,2.62,0,0,0-1.94-.4,3.13,3.13,0,0,0-1.28.61,4.73,4.73,0,0,0-1.12,1.25L220,54.49Zm-1.9-6.79a3.85,3.85,0,0,1,1.61-1.56,1.7,1.7,0,0,1,1.63.17l0,0A1.79,1.79,0,0,1,232,54a3.18,3.18,0,0,1-.6,2l-2,3.1L226,56.84Zm-4.4-2.66a2.85,2.85,0,0,1,1.4-1.25,1.66,1.66,0,0,1,1.49.21l0,0a1.81,1.81,0,0,1,.92,1.41,3,3,0,0,1-.54,1.82L225,56.21l-3.34-2.13Z"/><path class="cls-1" d="M245.16,42.33l-.67-3.25,4.91-3.42,2.8,1.78,1.09-.76L242.53,30l-.95.66,2.54,12.43ZM248.32,35l-4.11,2.86-1.3-6.28Z"/><polygon class="cls-1" points="268.01 30.85 266.13 21.55 274.97 29.43 275.94 29.24 273.63 17.9 272.45 18.14 274.29 27.23 265.67 19.52 264.53 19.75 266.83 31.09 268.01 30.85"/><path class="cls-1" d="M293.64,26.58l5.86,1.2.65,3.25,1.31.27-2.58-12.42-1.13-.23L290.5,29.06l1.25.25ZM298,20.25l1.26,6.28-4.91-1Z"/><path class="cls-1" d="M320.28,40.78a3.66,3.66,0,0,0,1.39.2,2.92,2.92,0,0,0,1.23-.36,3,3,0,0,0,1-.94l0,0a2.66,2.66,0,0,0,.44-1,2.44,2.44,0,0,0,0-.93,2.81,2.81,0,0,0-.29-.89,4.78,4.78,0,0,0-.54-.84,3.64,3.64,0,0,0,.74.05,2.6,2.6,0,0,0,1.52-.53,3.09,3.09,0,0,0,.69-.74l0,0a2.69,2.69,0,0,0,.46-1.92,3.3,3.3,0,0,0-.57-1.3,4.7,4.7,0,0,0-1.22-1.16l-3.85-2.64-6.54,9.54,4,2.76A6.15,6.15,0,0,0,320.28,40.78Zm1.41-11.37,2.75,1.88a2.79,2.79,0,0,1,1.2,1.44,1.69,1.69,0,0,1-.26,1.48l0,0a1.77,1.77,0,0,1-1.44.87,3,3,0,0,1-1.8-.6l-2.67-1.83Zm-2.9,4.24,2.85,2a3.79,3.79,0,0,1,1.5,1.66,1.67,1.67,0,0,1-.22,1.62l0,0a1.78,1.78,0,0,1-1.45.85,3.14,3.14,0,0,1-1.93-.67l-3-2.07Z"/><path class="cls-1" d="M336,52.67l3.25,5-1.86,2.74.73,1.12,7-10.54-.63-1L332,52.18l.69,1.06Zm7.56-1.34-3.59,5.31-2.73-4.2Z"/><polygon class="cls-1" points="229.47 129.61 226.13 124.58 230.22 121.87 229.56 120.89 220.38 126.97 221.03 127.96 225.16 125.22 228.5 130.25 224.37 132.99 225.02 133.98 234.21 127.89 233.55 126.91 229.47 129.61"/><path class="cls-1" d="M245.12,138.56a5.1,5.1,0,0,0-2-1,5.15,5.15,0,0,0-2.1-.08,5.49,5.49,0,0,0-2,.74,6,6,0,0,0-1.66,1.45l0,0a6.16,6.16,0,0,0-1.05,1.93,5.37,5.37,0,0,0-.28,2.09,5.11,5.11,0,0,0,1.95,3.73,5.21,5.21,0,0,0,2,1,5.33,5.33,0,0,0,2.1.09,5.7,5.7,0,0,0,2-.75,5.89,5.89,0,0,0,1.66-1.45s0,0,0,0a6.27,6.27,0,0,0,1-1.93,5.63,5.63,0,0,0,.29-2.09,5.39,5.39,0,0,0-.55-2A5.16,5.16,0,0,0,245.12,138.56Zm.51,5.43a5.13,5.13,0,0,1-.87,1.58l0,0a5.13,5.13,0,0,1-1.33,1.19,4.64,4.64,0,0,1-1.56.59,3.81,3.81,0,0,1-1.61-.05,3.92,3.92,0,0,1-2.58-2.07,4.16,4.16,0,0,1-.41-1.58,4.35,4.35,0,0,1,.22-1.66,4.79,4.79,0,0,1,.87-1.57l0,0a4.81,4.81,0,0,1,1.34-1.18,4.54,4.54,0,0,1,1.55-.6,4,4,0,0,1,1.61.05,4.06,4.06,0,0,1,2.58,2.07,4.16,4.16,0,0,1,.41,1.58A4.35,4.35,0,0,1,245.63,144Z"/><polygon class="cls-1" points="259.06 147.19 257.97 146.76 253.93 157 260.5 159.6 260.93 158.53 255.44 156.37 259.06 147.19"/><path class="cls-1" d="M281.4,153.83a5.24,5.24,0,0,0-1.66-1.31,6,6,0,0,0-2.21-.6l-3.61-.31-.95,11,3.63.31a5.84,5.84,0,0,0,2.27-.23,5.32,5.32,0,0,0,1.86-1A5.22,5.22,0,0,0,282,160a6,6,0,0,0,.59-2.13v0a5.65,5.65,0,0,0-.22-2.19A5.08,5.08,0,0,0,281.4,153.83Zm0,3.95v0a4.64,4.64,0,0,1-.45,1.67,4.24,4.24,0,0,1-1,1.3,4,4,0,0,1-1.44.79,4.91,4.91,0,0,1-1.82.18l-2.44-.21.74-8.69,2.45.21a4.73,4.73,0,0,1,1.76.49,4.1,4.1,0,0,1,1.28,1,4.22,4.22,0,0,1,.75,1.46A4.71,4.71,0,0,1,281.38,157.78Z"/><rect class="cls-1" x="294.22" y="151.29" width="1.18" height="11.01" transform="translate(-21.74 50.53) rotate(-9.45)"/><polygon class="cls-1" points="311.88 145.51 315.49 153.58 305.87 148.2 304.86 148.65 309.35 158.71 310.4 158.24 306.71 150 316.57 155.49 317.43 155.1 312.94 145.05 311.88 145.51"/><path class="cls-1" d="M328.64,140l.75.83,2.37-2.12,1.83,2a5.24,5.24,0,0,1-.48,1.47,4.53,4.53,0,0,1-1,1.36,4.1,4.1,0,0,1-1.52.89,3.63,3.63,0,0,1-1.6.15,4.21,4.21,0,0,1-1.59-.53,5.49,5.49,0,0,1-1.43-1.16l0,0a5.17,5.17,0,0,1-.94-1.5,4.72,4.72,0,0,1-.35-1.62,4,4,0,0,1,.29-1.57,3.51,3.51,0,0,1,.95-1.33,5.26,5.26,0,0,1,.82-.61,5,5,0,0,1,.79-.36,3.84,3.84,0,0,1,.8-.18,7.09,7.09,0,0,1,.81,0l-.07-1.21a8.42,8.42,0,0,0-1,.07,5.62,5.62,0,0,0-1,.24,4.93,4.93,0,0,0-1,.47,8.14,8.14,0,0,0-1,.73,4.86,4.86,0,0,0-1.29,1.78,5.1,5.1,0,0,0-.4,2,5.79,5.79,0,0,0,.42,2.07,6.21,6.21,0,0,0,1.16,1.87l0,0a6.58,6.58,0,0,0,1.74,1.4,5.27,5.27,0,0,0,2,.64,5.13,5.13,0,0,0,2.05-.21,5.37,5.37,0,0,0,1.95-1.16,5.62,5.62,0,0,0,1.46-2,6.9,6.9,0,0,0,.55-2.09l-2.93-3.27Z"/><path class="cls-1" d="M346.38,124.4a3,3,0,0,0-1-.89l0,0a2.48,2.48,0,0,0-2.12-.33,5.93,5.93,0,0,0-2.31,1.61,11.12,11.12,0,0,1-1.09,1,3.2,3.2,0,0,1-.85.49,1.38,1.38,0,0,1-.71.07,2,2,0,0,1-.66-.26l0,0a1.58,1.58,0,0,1-.77-1.17,2.45,2.45,0,0,1,.42-1.66,4.2,4.2,0,0,1,1.05-1.17,5.23,5.23,0,0,1,1.55-.78l-.46-1.08a5.83,5.83,0,0,0-1.74.89,5.5,5.5,0,0,0-1.34,1.53,4.11,4.11,0,0,0-.52,1.29,3.59,3.59,0,0,0,0,1.26,2.7,2.7,0,0,0,.44,1.11,2.66,2.66,0,0,0,.89.84l0,0a3.1,3.1,0,0,0,1.12.44,2.27,2.27,0,0,0,1.09-.09,3.62,3.62,0,0,0,1.12-.6,10.45,10.45,0,0,0,1.22-1.09,11.23,11.23,0,0,1,1.05-1,3,3,0,0,1,.82-.47,1.43,1.43,0,0,1,.7-.06,1.64,1.64,0,0,1,.64.25l0,0a1.68,1.68,0,0,1,.82,1.24,2.65,2.65,0,0,1-.44,1.73A4.56,4.56,0,0,1,344,129a6.06,6.06,0,0,1-1.87.8l.4,1.1a6.46,6.46,0,0,0,2.17-1,6,6,0,0,0,1.57-1.73,4.4,4.4,0,0,0,.56-1.34,3.33,3.33,0,0,0,.05-1.29A3.09,3.09,0,0,0,346.38,124.4Z"/><path class="cls-1" d="M66.37,223.15a10.45,10.45,0,0,1,4.12,8.75,11.16,11.16,0,0,1-4.44,9.28,13.89,13.89,0,0,1-4.33,2.23,16.47,16.47,0,0,1-5,.76H37.49v-2.26q.69-.06,2-.27a7.33,7.33,0,0,0,1.89-.49A2.64,2.64,0,0,0,42.64,240,4.3,4.3,0,0,0,43,238V205.6a5.13,5.13,0,0,0-.33-1.91,2.65,2.65,0,0,0-1.3-1.33,7.74,7.74,0,0,0-1.92-.74,13.69,13.69,0,0,0-1.78-.31v-2.26H56.44a17.62,17.62,0,0,1,4.16.48,11.53,11.53,0,0,1,3.79,1.68,8.72,8.72,0,0,1,2.78,3,9.28,9.28,0,0,1,1.09,4.64,10.92,10.92,0,0,1-.78,4.25,9.26,9.26,0,0,1-2.17,3.2,12.67,12.67,0,0,1-3,2.14,15.66,15.66,0,0,1-3.68,1.35v.29a19.66,19.66,0,0,1,3.91,1A13.1,13.1,0,0,1,66.37,223.15Zm-6.92-6.81a8.27,8.27,0,0,0,1.47-3,16.14,16.14,0,0,0,.41-3.86,8.64,8.64,0,0,0-1.83-5.84c-1.21-1.41-3.14-2.12-5.76-2.12-.61,0-1.38,0-2.3.05l-2.33.08V219h3.63a10.68,10.68,0,0,0,4-.67A6.37,6.37,0,0,0,59.45,216.34Zm4,14.41A9.24,9.24,0,0,0,61,224.17q-2.41-2.58-6.91-2.58c-1.22,0-2.25,0-3.09,0l-1.89.08v15.9a3.45,3.45,0,0,0,1.46,3,7,7,0,0,0,4.07,1,7.92,7.92,0,0,0,6.52-2.77C62.67,237.05,63.42,234.33,63.42,230.75Z"/><path class="cls-1" d="M113.76,244.17H96.88v-2.26a16.16,16.16,0,0,0,3.71-.63c1-.32,1.47-.71,1.47-1.18a5.07,5.07,0,0,0-.06-.7,3.56,3.56,0,0,0-.17-.73l-3.36-10.11H84.21c-.53,1.48-1,2.77-1.3,3.88s-.64,2.12-.9,3.05-.42,1.65-.52,2.23a8.19,8.19,0,0,0-.14,1.39q0,1.27,1.8,2a13.3,13.3,0,0,0,4.06.82v2.26H71.92v-2.26a10.63,10.63,0,0,0,1.86-.36,5.64,5.64,0,0,0,1.83-.81,7.73,7.73,0,0,0,1.78-1.8,12.37,12.37,0,0,0,1.23-2.59q3.06-8.49,6.75-19.08L92,198.41h2.29l13.54,38.92a8.19,8.19,0,0,0,1,2,7,7,0,0,0,1.52,1.49,5.88,5.88,0,0,0,1.72.75,7.85,7.85,0,0,0,1.77.33ZM97.42,225.73l-6.15-17.51-6.06,17.51Z"/><path class="cls-1" d="M156.89,201.31a11.33,11.33,0,0,0-2.46.51,8.08,8.08,0,0,0-2.38,1,4.66,4.66,0,0,0-1.39,3,37.76,37.76,0,0,0-.35,5.73v33h-2.5L123.2,207.7V231a30.49,30.49,0,0,0,.45,6,5.75,5.75,0,0,0,1.36,3,6.4,6.4,0,0,0,2.72,1.31,15.05,15.05,0,0,0,2.71.63v2.26H113.79v-2.26a14.56,14.56,0,0,0,2.6-.62,6.44,6.44,0,0,0,2.29-1,4.79,4.79,0,0,0,1.38-2.72,36.69,36.69,0,0,0,.37-6.25V209.1a10,10,0,0,0-.46-2.93,5.75,5.75,0,0,0-1.23-2.26,8.61,8.61,0,0,0-2.79-1.79,9,9,0,0,0-2.85-.81v-2.26h11.6l22.83,34.4V212a30.08,30.08,0,0,0-.46-6.06,4.9,4.9,0,0,0-1.32-2.81,9,9,0,0,0-2.61-1.18,13,13,0,0,0-2.77-.63v-2.26h16.52Z"/><path class="cls-1" d="M198,244.17H181.16v-2.26a16.16,16.16,0,0,0,3.71-.63c1-.32,1.47-.71,1.47-1.18a5.07,5.07,0,0,0-.06-.7,3.56,3.56,0,0,0-.17-.73l-3.36-10.11H168.49c-.53,1.48-1,2.77-1.3,3.88s-.64,2.12-.9,3.05-.42,1.65-.52,2.23a8.19,8.19,0,0,0-.14,1.39q0,1.27,1.8,2a13.3,13.3,0,0,0,4.06.82v2.26H156.2v-2.26a10.63,10.63,0,0,0,1.86-.36,5.74,5.74,0,0,0,1.83-.81,7.94,7.94,0,0,0,1.78-1.8,12.37,12.37,0,0,0,1.23-2.59q3.06-8.49,6.75-19.08l6.58-18.86h2.29l13.54,38.92a8.19,8.19,0,0,0,1,2,7,7,0,0,0,1.52,1.49,5.88,5.88,0,0,0,1.72.75,7.85,7.85,0,0,0,1.77.33ZM181.7,225.73l-6.15-17.51-6.06,17.51Z"/><path class="cls-1" d="M228.29,223.15a10.45,10.45,0,0,1,4.12,8.75,11.16,11.16,0,0,1-4.44,9.28,13.89,13.89,0,0,1-4.33,2.23,16.47,16.47,0,0,1-5,.76H199.41v-2.26q.69-.06,2-.27a7.33,7.33,0,0,0,1.89-.49,2.64,2.64,0,0,0,1.25-1.19,4.3,4.3,0,0,0,.38-1.93V205.6a5.13,5.13,0,0,0-.33-1.91,2.65,2.65,0,0,0-1.3-1.33,7.74,7.74,0,0,0-1.92-.74,13.69,13.69,0,0,0-1.78-.31v-2.26h18.75a17.62,17.62,0,0,1,4.16.48,11.53,11.53,0,0,1,3.79,1.68,8.62,8.62,0,0,1,2.78,3,9.18,9.18,0,0,1,1.09,4.64,10.92,10.92,0,0,1-.78,4.25,9.26,9.26,0,0,1-2.17,3.2,12.67,12.67,0,0,1-3,2.14,15.66,15.66,0,0,1-3.68,1.35v.29a19.66,19.66,0,0,1,3.91,1A13.1,13.1,0,0,1,228.29,223.15Zm-6.92-6.81a8.27,8.27,0,0,0,1.47-3,16.14,16.14,0,0,0,.41-3.86,8.64,8.64,0,0,0-1.83-5.84c-1.21-1.41-3.14-2.12-5.76-2.12-.61,0-1.38,0-2.3.05l-2.33.08V219h3.63a10.68,10.68,0,0,0,4-.67A6.37,6.37,0,0,0,221.37,216.34Zm4,14.41a9.24,9.24,0,0,0-2.42-6.58q-2.41-2.58-6.91-2.58c-1.22,0-2.25,0-3.09,0l-1.89.08v15.9a3.45,3.45,0,0,0,1.46,3,7,7,0,0,0,4.07,1,7.92,7.92,0,0,0,6.52-2.77C224.59,237.05,225.34,234.33,225.34,230.75Z"/><path class="cls-1" d="M275.68,244.17H258.8v-2.26a16.16,16.16,0,0,0,3.71-.63c1-.32,1.47-.71,1.47-1.18a5.07,5.07,0,0,0-.06-.7,3.56,3.56,0,0,0-.17-.73l-3.36-10.11H246.13c-.53,1.48-1,2.77-1.3,3.88s-.64,2.12-.9,3.05-.42,1.65-.52,2.23a9.38,9.38,0,0,0-.14,1.39q0,1.27,1.8,2a13.31,13.31,0,0,0,4.07.82v2.26h-15.3v-2.26a10.63,10.63,0,0,0,1.86-.36,5.55,5.55,0,0,0,1.83-.81,7.73,7.73,0,0,0,1.78-1.8,12.37,12.37,0,0,0,1.23-2.59q3.06-8.49,6.75-19.08l6.58-18.86h2.29l13.54,38.92a8.19,8.19,0,0,0,1,2,7,7,0,0,0,1.52,1.49,5.88,5.88,0,0,0,1.72.75,7.85,7.85,0,0,0,1.77.33Zm-16.34-18.44-6.15-17.51-6.06,17.51Z"/><path class="cls-1" d="M346.51,201.31a5.87,5.87,0,0,0-1.66.36,8.2,8.2,0,0,0-1.75.88,6.28,6.28,0,0,0-1.61,1.6,9.07,9.07,0,0,0-1.08,2.53l-4.72,17.16q-2.69,9.81-5.81,20.9h-2.63L317,210l-10.66,34.75h-2.53q-2.83-11.13-5.87-23.1t-4.06-16a5.66,5.66,0,0,0-.76-1.75,5.44,5.44,0,0,0-1.36-1.4,4.9,4.9,0,0,0-1.67-.81,9.12,9.12,0,0,0-1.73-.33v-2.26h16.55v2.26a22.73,22.73,0,0,0-3.7.47c-1,.24-1.53.63-1.53,1.18a5,5,0,0,0,.08.84c.06.35.11.63.14.85.44,1.86,1.22,4.95,2.33,9.25s2.77,10.74,5,19.33l10.14-33.54h2.8l10.23,34.25q2.06-7.89,3.56-13.8T336.39,210c.46-2,.74-3.32.86-4.05a13.14,13.14,0,0,0,.17-1.86,2.13,2.13,0,0,0-1.33-1.82,11.69,11.69,0,0,0-4.31-1v-2.26h14.73Z"/><path class="cls-1" d="M386.32,244.17H369.44v-2.26a16,16,0,0,0,3.7-.63c1-.32,1.48-.71,1.48-1.18a5.07,5.07,0,0,0-.06-.7,4.37,4.37,0,0,0-.17-.73L371,228.56H356.77c-.54,1.48-1,2.77-1.3,3.88s-.64,2.12-.91,3.05a20.89,20.89,0,0,0-.51,2.23,8.37,8.37,0,0,0-.15,1.39c0,.85.6,1.51,1.81,2a13.24,13.24,0,0,0,4.06.82v2.26H344.48v-2.26a11,11,0,0,0,1.86-.36,5.74,5.74,0,0,0,1.83-.81,7.87,7.87,0,0,0,1.77-1.8,12.37,12.37,0,0,0,1.23-2.59q3.06-8.49,6.76-19.08t6.58-18.86h2.29l13.54,38.92a7.85,7.85,0,0,0,1,2,7,7,0,0,0,1.52,1.49,5.81,5.81,0,0,0,1.71.75,8,8,0,0,0,1.78.33ZM370,225.73l-6.15-17.51-6.06,17.51Z"/><path class="cls-1" d="M420.37,230.75l-.86,13.42H387.78v-2.26c.45,0,1.12-.11,2-.22a6.39,6.39,0,0,0,1.81-.41,2.58,2.58,0,0,0,1.25-1.21,4.64,4.64,0,0,0,.38-2v-32.3a5.13,5.13,0,0,0-.33-1.91,2.59,2.59,0,0,0-1.3-1.34,9.26,9.26,0,0,0-1.84-.74,9.15,9.15,0,0,0-2-.43v-2.26h17.14v2.26a11.89,11.89,0,0,0-2.08.31,18.09,18.09,0,0,0-1.84.51,2.24,2.24,0,0,0-1.33,1.31,5.35,5.35,0,0,0-.36,2v30.3a21,21,0,0,0,.19,3.26,3,3,0,0,0,.87,1.8,3.65,3.65,0,0,0,2,.74,28.29,28.29,0,0,0,3.65.18c.7,0,1.44,0,2.2-.06a18.32,18.32,0,0,0,2.18-.26,9.89,9.89,0,0,0,1.84-.52,3,3,0,0,0,1.25-.85,28.71,28.71,0,0,0,2.73-4.43,33,33,0,0,0,2.16-4.82Z"/><path class="cls-1" d="M455.74,230.75l-.85,13.42H423.15v-2.26c.46,0,1.12-.11,2-.22a6.3,6.3,0,0,0,1.81-.41,2.58,2.58,0,0,0,1.25-1.21,4.64,4.64,0,0,0,.39-2v-32.3a5.13,5.13,0,0,0-.33-1.91,2.65,2.65,0,0,0-1.31-1.34,9,9,0,0,0-1.84-.74,9.15,9.15,0,0,0-2-.43v-2.26h17.14v2.26a11.8,11.8,0,0,0-2.07.31,17.7,17.7,0,0,0-1.85.51,2.24,2.24,0,0,0-1.33,1.31,5.35,5.35,0,0,0-.36,2v30.3a21,21,0,0,0,.19,3.26,3,3,0,0,0,.87,1.8,3.65,3.65,0,0,0,2,.74,28.4,28.4,0,0,0,3.65.18c.7,0,1.44,0,2.2-.06a18.08,18.08,0,0,0,2.18-.26,9.68,9.68,0,0,0,1.84-.52,3,3,0,0,0,1.25-.85,28.71,28.71,0,0,0,2.73-4.43,33,33,0,0,0,2.16-4.82Z"/><path class="cls-1" d="M492.66,230.88l-.77,13.29H458.18v-2.26c.57,0,1.33-.13,2.29-.27a7.22,7.22,0,0,0,1.86-.43A2.68,2.68,0,0,0,463.6,240,4.54,4.54,0,0,0,464,238V205.6a5.1,5.1,0,0,0-.32-1.86,2.58,2.58,0,0,0-1.31-1.32,8.84,8.84,0,0,0-2.08-.73,14.19,14.19,0,0,0-2.07-.38v-2.26H489.6v10.87h-2.15a15.16,15.16,0,0,0-2.47-5.13q-1.91-2.72-3.62-3c-.59-.09-1.3-.15-2.12-.2s-1.76-.06-2.81-.06h-6.38V219.5h4.58a8.23,8.23,0,0,0,3.22-.47,4.47,4.47,0,0,0,1.79-1.54,8.35,8.35,0,0,0,1.07-2.46,17.07,17.07,0,0,0,.59-2.91h2.15V229.8H481.3a15.39,15.39,0,0,0-.62-3.23,8.54,8.54,0,0,0-1-2.46,4.17,4.17,0,0,0-2-1.63,9.71,9.71,0,0,0-3-.38h-4.58v13.53a15.71,15.71,0,0,0,.26,3.2,3,3,0,0,0,1,1.78,4.12,4.12,0,0,0,2,.78,30.66,30.66,0,0,0,3.67.17h2.49a23.55,23.55,0,0,0,2.6-.12,13.68,13.68,0,0,0,2.25-.47,3.29,3.29,0,0,0,1.64-.9,20.74,20.74,0,0,0,2.77-4.63,33.49,33.49,0,0,0,1.84-4.56Z"/><path class="cls-1" d="M529.84,211.29h-2a16,16,0,0,0-.93-2.72,24.3,24.3,0,0,0-1.51-3,14.24,14.24,0,0,0-1.88-2.56,3.67,3.67,0,0,0-2-1.26c-.59-.08-1.34-.14-2.24-.19s-1.73-.06-2.49-.06h-1.67v36.09a4.64,4.64,0,0,0,.4,1.92A2.79,2.79,0,0,0,517,240.9a16.1,16.1,0,0,0,2.16.6,14.53,14.53,0,0,0,2.56.41v2.26H502.53v-2.26c.54,0,1.35-.12,2.45-.25a8.74,8.74,0,0,0,2.28-.48,2.76,2.76,0,0,0,1.38-1.19,4.14,4.14,0,0,0,.45-2.08V201.53h-1.66c-.59,0-1.33,0-2.21.05s-1.71.1-2.51.2a3.44,3.44,0,0,0-2,1.26,16.27,16.27,0,0,0-1.88,2.56,22.69,22.69,0,0,0-1.52,3,20.56,20.56,0,0,0-.91,2.65h-2V199.05h35.4Z"/></svg>