<svg id="Layer_1" data-name="Layer 1" xmlns="http://www.w3.org/2000/svg" viewBox="0 0 512 512"><defs><style>.cls-1{fill:#bd8659;}</style></defs><title>대지 1</title><path class="cls-1" d="M256,504A248.1,248.1,0,0,1,95.63,445.18a250.94,250.94,0,0,1-29.26-29.33A248,248,0,1,1,256,504Zm0-465C136.35,39,39,136.35,39,256a217,217,0,1,0,434,0c0-119.65-97.35-217-217-217Z"/><path class="cls-1" d="M256,256a93,93,0,1,1,93-93A93.11,93.11,0,0,1,256,256Zm0-155a62,62,0,1,0,62,62A62.07,62.07,0,0,0,256,101Z"/><path class="cls-1" d="M406.35,448.86a15.51,15.51,0,0,1-15-19.27,140.32,140.32,0,0,0,4.19-34.09C395.5,319.66,333.84,257.1,258,256H254C178.16,257.1,116.5,319.66,116.5,395.5a140.32,140.32,0,0,0,4.19,34.09,15.5,15.5,0,1,1-30.06,7.54A170.54,170.54,0,0,1,253.58,225h4.84a170.62,170.62,0,0,1,163,212.12A15.49,15.49,0,0,1,406.35,448.86Z"/></svg>