<svg id="레이어_1" data-name="레이어 1" xmlns="http://www.w3.org/2000/svg" xmlns:xlink="http://www.w3.org/1999/xlink" viewBox="0 0 566.93 566.93"><defs><style>.cls-1{fill:#eaf3ec;}.cls-2,.cls-4,.cls-6{fill:none;stroke:#a1cea8;stroke-miterlimit:10;}.cls-2{stroke-width:17px;}.cls-3{fill:#a1cea8;}.cls-4{stroke-width:5px;}.cls-5{fill:#fff;}</style></defs><title>대지 1</title><path class="cls-1" d="M23.53,174.1c9.58-54.24,41.18-102,100.7-125.24C178.32,27.73,242.06,32.26,290,66.17c37.35,26.4,58.67,66.88,89.6,99.42,15.05,15.83,32.94,25.75,54.06,30.95,25.51,6.28,51.62,8.33,73.92,23.53,99.84,68.05,33.63,210.59-45.73,264.06-104,70.08-239.34,26-326.79-49.5a374,374,0,0,1-82-99.66C25.86,286.36,14.17,227.13,23.53,174.1Z"/><rect class="cls-2" x="143.71" y="66.71" width="267.66" height="459.72" rx="12" ry="12"/><path class="cls-3" d="M196.35,64.26V89.4a21.47,21.47,0,0,0,21.41,21.41H337.32A21.47,21.47,0,0,0,358.73,89.4V64.26Z"/><polyline class="cls-4" points="228.36 173.13 228.36 171.11 167.88 171.11 167.88 231.6 169.9 231.6"/><polyline class="cls-4" points="329.17 173.13 329.17 171.11 389.65 171.11 389.65 231.6 387.63 231.6"/><polyline class="cls-4" points="228.36 411.03 228.36 413.05 167.88 413.05 167.88 352.56 169.9 352.56"/><polyline class="cls-4" points="329.17 411.03 329.17 413.05 389.65 413.05 389.65 352.56 387.63 352.56"/><image width="512" height="512" transform="translate(200.44 209.41) scale(0.31)" xlink:href="../../Downloads/qr-code.png"/><path class="cls-3" d="M472.53,384.81s-14.87-18.12-27.71-11S460.89,395.68,472.53,384.81Z"/><circle class="cls-5" cx="327.03" cy="89.15" r="6.81"/><path class="cls-3" d="M92.14,459.7s13.38-19.25,3-29.66S78.51,451.47,92.14,459.7Z"/><path class="cls-6" d="M52.4,430.26s22,8,29.46-4.63S56.89,415,52.4,430.26Z"/><path class="cls-3" d="M443.09,131.46s-15.13,17.92-5.81,29.26S455.89,140.94,443.09,131.46Z"/><path class="cls-6" d="M479.88,164.52s-21.17-10.07-29.76,1.84S474,179.31,479.88,164.52Z"/></svg>