<svg id="레이어_1" data-name="레이어 1" xmlns="http://www.w3.org/2000/svg" viewBox="0 0 141.73 141.73"><defs><style>.cls-1{fill:#bd8659;}</style></defs><title>대지 1</title><path id="_Icon-Color" data-name="Icon-Color" class="cls-1" d="M12.5,78.31A7.31,7.31,0,1,0,5.19,71,7.33,7.33,0,0,0,12.5,78.31Zm0,29.25a7.31,7.31,0,1,0-7.31-7.31A7.33,7.33,0,0,0,12.5,107.56Zm0-58.5a7.31,7.31,0,1,0-7.31-7.31A7.33,7.33,0,0,0,12.5,49.06ZM41.75,78.31H129.5a7.31,7.31,0,0,0,0-14.62H41.75a7.31,7.31,0,0,0,0,14.62Zm0,29.25H129.5a7.31,7.31,0,0,0,0-14.62H41.75a7.31,7.31,0,0,0,0,14.62ZM34.44,41.75a7.33,7.33,0,0,0,7.31,7.31H129.5a7.31,7.31,0,0,0,0-14.62H41.75A7.33,7.33,0,0,0,34.44,41.75Z"/></svg>