<svg id="레이어_1" data-name="레이어 1" xmlns="http://www.w3.org/2000/svg" viewBox="0 0 141.73 141.73"><defs><style>.cls-1{fill:#bd8659;}</style></defs><title>대지 1</title><path id="_Icon-Color" data-name="Icon-Color" class="cls-1" d="M51.57,85H12.5a6.5,6.5,0,0,0,0,13H51.57v11.64a3.21,3.21,0,0,0,5.52,2.27L75.16,93.78a3.35,3.35,0,0,0,0-4.62L57.09,71a3.23,3.23,0,0,0-5.52,2.27ZM90.43,70.64V59H129.5a6.5,6.5,0,0,0,0-13H90.43V34.37a3.21,3.21,0,0,0-5.52-2.28L66.84,50.23a3.34,3.34,0,0,0,0,4.61L84.91,73A3.25,3.25,0,0,0,90.43,70.64Z"/></svg>